# xmcd
#
# Track frame offsets:
#	150
#	12285
#	26817
#	46353
#	62486
#	79324
#	97816
#	111174
#	129000
#	143214
#	160258
#	177542
#	196015
#	210182
#	225961
#	240503
#	257391
#	272668
#
# Disc length: 3849 seconds
# Revision: 0
# Processed by: cddbd v1.5.2PL0 Copyright (c) Steve Scherf et al.
# Submitted via: dBpowerAMP V12.0
#
DISCID=dc0f0712
DTITLE=Various Artist - Country Radio September 2010
DYEAR=2010
DGENRE=Country
TTITLE0=Gord Bamford - Put Some Alcohol On It
TTITLE1=Chad Brownlee - Hood Of My Car
TTITLE2=Kenny Chesney - The Boys Of Fall
TTITLE3=Reba - Turn On The Radio
TTITLE4=Rascal Flatts - Why Wait
TTITLE5=Sugarland - Stuck Like Glue
TTITLE6=Jake Matthews - If I Had I My Way
TTITLE7=Carrie Underwood - Mama's Song
TTITLE8=Eric Church - Smoke A Little Smoke
TTITLE9=Gwyneth Paltrow - Country Song
TTITLE10=Taylor Swift - Mine
TTITLE11=Brad Paisley - Anything Like Me
TTITLE12=Joe Nichols - The Shape I'm In
TTITLE13=High Valley - On The Combine
TTITLE14=Steve Miller - Hey Yeah
TTITLE15=Steel Magnolia - Just By Being You
TTITLE16=Williams Riley - Makes Me Go La La
TTITLE17=Train - Hey Soul Sister (Country Mix)
EXTD=
EXTT0=
EXTT1=
EXTT2=
EXTT3=
EXTT4=
EXTT5=
EXTT6=
EXTT7=
EXTT8=
EXTT9=
EXTT10=
EXTT11=
EXTT12=
EXTT13=
EXTT14=
EXTT15=
EXTT16=
EXTT17=
PLAYORDER=
